<svg width="24" height="24" viewBox="0 0 24 24" fill="none" xmlns="http://www.w3.org/2000/svg">
<path d="M4.63189 3.57123L4.10156 3.0409L3.0409 4.10156L3.57123 4.63189L4.63189 3.57123ZM19.3659 20.4265L19.8963 20.9569L20.9569 19.8962L20.4266 19.3659L19.3659 20.4265ZM3.57123 4.63189L19.3659 20.4265L20.4266 19.3659L4.63189 3.57123L3.57123 4.63189Z" fill="currentColor"/>
<path d="M19.3642 3.57123L19.8945 3.0409L20.9552 4.10156L20.4249 4.63189L19.3642 3.57123ZM4.63015 20.4265L4.09982 20.9569L3.03916 19.8962L3.56949 19.3659L4.63015 20.4265ZM20.4249 4.63189L4.63015 20.4265L3.56949 19.3659L19.3642 3.57123L20.4249 4.63189Z" fill="currentColor"/>
</svg>
